# Made in Blockbench 3.7.5
mtllib materials.mtl
o cube
v 0.875 0.3125 0.875
v 0.875 0.3125 0.125
v 0.875 0 0.875
v 0.875 0 0.125
v 0.125 0.3125 0.125
v 0.125 0.3125 0.875
v 0.125 0 0.125
v 0.125 0 0.875
vt 0.03125 0.6875
vt 0.03125 0.375
vt 0.78125 0.6875
vt 0.03125 0.375
vt 0.78125 0.375
vt 0.78125 0.6875
vt 0 0.6875
vt 0 0.375
vt 0.75 0.6875
vt 0 0.375
vt 0.75 0.375
vt 0.75 0.6875
vt 0 0.75
vt 0 0
vt 0.75 0.75
vt 0 0
vt 0.75 0
vt 0.75 0.75
vt 0.125 0.875
vt 0.125 0.125
vt 0.875 0.875
vt 0.125 0.125
vt 0.875 0.125
vt 0.875 0.875
vt 0 0.6875
vt 0 0.375
vt 0.75 0.6875
vt 0 0.375
vt 0.75 0.375
vt 0.75 0.6875
vt 0 0.6875
vt 0 0.375
vt 0.75 0.6875
vt 0 0.375
vt 0.75 0.375
vt 0.75 0.6875
vn 1 0 0
vn 1 0 0
vn 1 0 0
vn 1 0 0
vn 1 0 0
vn 1 0 0
vn -1 0 0
vn -1 0 0
vn -1 0 0
vn -1 0 0
vn -1 0 0
vn -1 0 0
vn 0 1 0
vn 0 1 0
vn 0 1 0
vn 0 1 0
vn 0 1 0
vn 0 1 0
vn 0 -1 0
vn 0 -1 0
vn 0 -1 0
vn 0 -1 0
vn 0 -1 0
vn 0 -1 0
vn 0 0 1
vn 0 0 1
vn 0 0 1
vn 0 0 1
vn 0 0 1
vn 0 0 1
vn 0 0 -1
vn 0 0 -1
vn 0 0 -1
vn 0 0 -1
vn 0 0 -1
vn 0 0 -1
usemtl m_stone_2
f 1/1/1 3/2/2 2/3/3
f 3/4/4 4/5/5 2/6/6
usemtl m_stone_2
f 5/7/7 7/8/8 6/9/9
f 7/10/10 8/11/11 6/12/12
usemtl m_stone_2
f 5/13/13 6/14/14 2/15/15
f 6/16/16 1/17/17 2/18/18
usemtl m_stone_2
f 8/19/19 7/20/20 3/21/21
f 7/22/22 4/23/23 3/24/24
usemtl m_stone_2
f 6/25/25 8/26/26 1/27/27
f 8/28/28 3/29/29 1/30/30
usemtl m_stone_2
f 2/31/31 4/32/32 5/33/33
f 4/34/34 7/35/35 5/36/36
o cube
v 0.6875 1.875 0.6875
v 0.6875 1.875 0.3125
v 0.6875 1.25 0.6875
v 0.6875 1.25 0.3125
v 0.3125 1.875 0.3125
v 0.3125 1.875 0.6875
v 0.3125 1.25 0.3125
v 0.3125 1.25 0.6875
vt 0.28125 0.71875
vt 0.28125 0.28125
vt 0.65625 0.71875
vt 0.28125 0.28125
vt 0.65625 0.28125
vt 0.65625 0.71875
vt 0.3125 0.71875
vt 0.3125 0.28125
vt 0.6875 0.71875
vt 0.3125 0.28125
vt 0.6875 0.28125
vt 0.6875 0.71875
vt 0.3125 0.6875
vt 0.3125 0.3125
vt 0.6875 0.6875
vt 0.3125 0.3125
vt 0.6875 0.3125
vt 0.6875 0.6875
vt 0.3125 0.71875
vt 0.3125 0.28125
vt 0.6875 0.71875
vt 0.3125 0.28125
vt 0.6875 0.28125
vt 0.6875 0.71875
vt 0.28125 0.6875
vt 0.28125 0.0625
vt 0.65625 0.6875
vt 0.28125 0.0625
vt 0.65625 0.0625
vt 0.65625 0.6875
vn 1 0 0
vn 1 0 0
vn 1 0 0
vn 1 0 0
vn 1 0 0
vn 1 0 0
vn -1 0 0
vn -1 0 0
vn -1 0 0
vn -1 0 0
vn -1 0 0
vn -1 0 0
vn 0 1 0
vn 0 1 0
vn 0 1 0
vn 0 1 0
vn 0 1 0
vn 0 1 0
vn 0 0 1
vn 0 0 1
vn 0 0 1
vn 0 0 1
vn 0 0 1
vn 0 0 1
vn 0 0 -1
vn 0 0 -1
vn 0 0 -1
vn 0 0 -1
vn 0 0 -1
vn 0 0 -1
usemtl m_stone_1
f 9/37/37 11/38/38 10/39/39
f 11/40/40 12/41/41 10/42/42
usemtl m_stone_1
f 13/43/43 15/44/44 14/45/45
f 15/46/46 16/47/47 14/48/48
usemtl m_stone_1
f 13/49/49 14/50/50 10/51/51
f 14/52/52 9/53/53 10/54/54
usemtl m_stone_1
f 14/55/55 16/56/56 9/57/57
f 16/58/58 11/59/59 9/60/60
usemtl m_stone_1
f 10/61/61 12/62/62 13/63/63
f 12/64/64 15/65/65 13/66/66
o cube
v 0.8125 0.5625 0.8125
v 0.8125 0.5625 0.1875
v 0.8125 0.3125 0.8125
v 0.8125 0.3125 0.1875
v 0.1875 0.5625 0.1875
v 0.1875 0.5625 0.8125
v 0.1875 0.3125 0.1875
v 0.1875 0.3125 0.8125
vt 0 0.625
vt 0 0.375
vt 0.625 0.625
vt 0 0.375
vt 0.625 0.375
vt 0.625 0.625
vt 0.25 0.6875
vt 0.25 0.4375
vt 0.875 0.6875
vt 0.25 0.4375
vt 0.875 0.4375
vt 0.875 0.6875
vt 0.1875 0.84375
vt 0.1875 0.21875
vt 0.8125 0.84375
vt 0.1875 0.21875
vt 0.8125 0.21875
vt 0.8125 0.84375
vt 0.1875 0.625
vt 0.1875 0.375
vt 0.8125 0.625
vt 0.1875 0.375
vt 0.8125 0.375
vt 0.8125 0.625
vt 0.28125 0.6875
vt 0.28125 0.4375
vt 0.90625 0.6875
vt 0.28125 0.4375
vt 0.90625 0.4375
vt 0.90625 0.6875
vn 1 0 0
vn 1 0 0
vn 1 0 0
vn 1 0 0
vn 1 0 0
vn 1 0 0
vn -1 0 0
vn -1 0 0
vn -1 0 0
vn -1 0 0
vn -1 0 0
vn -1 0 0
vn 0 1 0
vn 0 1 0
vn 0 1 0
vn 0 1 0
vn 0 1 0
vn 0 1 0
vn 0 0 1
vn 0 0 1
vn 0 0 1
vn 0 0 1
vn 0 0 1
vn 0 0 1
vn 0 0 -1
vn 0 0 -1
vn 0 0 -1
vn 0 0 -1
vn 0 0 -1
vn 0 0 -1
usemtl m_stone_2
f 17/67/67 19/68/68 18/69/69
f 19/70/70 20/71/71 18/72/72
usemtl m_stone_2
f 21/73/73 23/74/74 22/75/75
f 23/76/76 24/77/77 22/78/78
usemtl m_stone_2
f 21/79/79 22/80/80 18/81/81
f 22/82/82 17/83/83 18/84/84
usemtl m_stone_2
f 22/85/85 24/86/86 17/87/87
f 24/88/88 19/89/89 17/90/90
usemtl m_stone_2
f 18/91/91 20/92/92 21/93/93
f 20/94/94 23/95/95 21/96/96
o cube
v 0.6849873734152918 1.8763009550107068 0.681875
v 0.6849873734152918 1.8763009550107068 0.313125
v 0.49937184335382306 1.690685424949238 0.681875
v 0.49937184335382306 1.690685424949238 0.313125
v 0.499371843353823 2.0619164850721754 0.313125
v 0.499371843353823 2.0619164850721754 0.681875
v 0.3137563132923543 1.8763009550107068 0.313125
v 0.3137563132923543 1.8763009550107068 0.681875
vt 0.28125 0.9375
vt 0.03125 0.9375
vt 0.28125 0.5625
vt 0.03125 0.9375
vt 0.03125 0.5625
vt 0.28125 0.5625
vt 0.28125 0.59375
vt 0.53125 0.59375
vt 0.28125 0.96875
vt 0.53125 0.59375
vt 0.53125 0.96875
vt 0.28125 0.96875
vt 0.29375 0.31875
vt 0.29375 0.6875
vt 0.03125 0.31875
vt 0.29375 0.6875
vt 0.03125 0.6875
vt 0.03125 0.31875
vt 0.03125 0.6875
vt 0.03125 0.31875
vt 0.29375 0.6875
vt 0.03125 0.31875
vt 0.29375 0.31875
vt 0.29375 0.6875
vt 0.09375 0.96875
vt 0.09375 0.71875
vt 0.34375 0.96875
vt 0.09375 0.71875
vt 0.34375 0.71875
vt 0.34375 0.96875
vt 0.96875 0.71875
vt 0.96875 0.96875
vt 0.71875 0.71875
vt 0.96875 0.96875
vt 0.71875 0.96875
vt 0.71875 0.71875
vn 0.7071067811865475 -0.7071067811865476 0
vn 0.7071067811865475 -0.7071067811865476 0
vn 0.7071067811865475 -0.7071067811865476 0
vn 0.7071067811865475 -0.7071067811865476 0
vn 0.7071067811865475 -0.7071067811865476 0
vn 0.7071067811865475 -0.7071067811865476 0
vn -0.7071067811865475 0.7071067811865476 0
vn -0.7071067811865475 0.7071067811865476 0
vn -0.7071067811865475 0.7071067811865476 0
vn -0.7071067811865475 0.7071067811865476 0
vn -0.7071067811865475 0.7071067811865476 0
vn -0.7071067811865475 0.7071067811865476 0
vn 0.7071067811865476 0.7071067811865475 0
vn 0.7071067811865476 0.7071067811865475 0
vn 0.7071067811865476 0.7071067811865475 0
vn 0.7071067811865476 0.7071067811865475 0
vn 0.7071067811865476 0.7071067811865475 0
vn 0.7071067811865476 0.7071067811865475 0
vn -0.7071067811865476 -0.7071067811865475 0
vn -0.7071067811865476 -0.7071067811865475 0
vn -0.7071067811865476 -0.7071067811865475 0
vn -0.7071067811865476 -0.7071067811865475 0
vn -0.7071067811865476 -0.7071067811865475 0
vn -0.7071067811865476 -0.7071067811865475 0
vn 0 0 1
vn 0 0 1
vn 0 0 1
vn 0 0 1
vn 0 0 1
vn 0 0 1
vn 0 0 -1
vn 0 0 -1
vn 0 0 -1
vn 0 0 -1
vn 0 0 -1
vn 0 0 -1
usemtl m_stone_1
f 25/97/97 27/98/98 26/99/99
f 27/100/100 28/101/101 26/102/102
usemtl m_stone_1
f 29/103/103 31/104/104 30/105/105
f 31/106/106 32/107/107 30/108/108
usemtl m_stone_1
f 29/109/109 30/110/110 26/111/111
f 30/112/112 25/113/113 26/114/114
usemtl m_stone_1
f 32/115/115 31/116/116 27/117/117
f 31/118/118 28/119/119 27/120/120
usemtl m_stone_1
f 30/121/121 32/122/122 25/123/123
f 32/124/124 27/125/125 25/126/126
usemtl m_stone_1
f 26/127/127 28/128/128 29/129/129
f 28/130/130 31/131/131 29/132/132
o cube
v 0.6875 0.53125 0.1875
v 0.6875 0.53125 0.15625
v 0.6875 0.3125 0.1875
v 0.6875 0.3125 0.15625
v 0.3125 0.53125 0.15625
v 0.3125 0.53125 0.1875
v 0.3125 0.3125 0.15625
v 0.3125 0.3125 0.1875
vt 0 0.21875
vt 0 0
vt 0.03125 0.21875
vt 0 0
vt 0.03125 0
vt 0.03125 0.21875
vt 0.90625 0.21875
vt 0.90625 0
vt 0.9375 0.21875
vt 0.90625 0
vt 0.9375 0
vt 0.9375 0.21875
vt 0 1
vt 0 0.96875
vt 0.375 1
vt 0 0.96875
vt 0.375 0.96875
vt 0.375 1
vt 0 0.90625
vt 0 0.125
vt 1 0.90625
vt 0 0.125
vt 1 0.125
vt 1 0.90625
vn 1 0 0
vn 1 0 0
vn 1 0 0
vn 1 0 0
vn 1 0 0
vn 1 0 0
vn -1 0 0
vn -1 0 0
vn -1 0 0
vn -1 0 0
vn -1 0 0
vn -1 0 0
vn 0 1 0
vn 0 1 0
vn 0 1 0
vn 0 1 0
vn 0 1 0
vn 0 1 0
vn 0 0 -1
vn 0 0 -1
vn 0 0 -1
vn 0 0 -1
vn 0 0 -1
vn 0 0 -1
usemtl m_text
f 33/133/133 35/134/134 34/135/135
f 35/136/136 36/137/137 34/138/138
usemtl m_text
f 37/139/139 39/140/140 38/141/141
f 39/142/142 40/143/143 38/144/144
usemtl m_text
f 37/145/145 38/146/146 34/147/147
f 38/148/148 33/149/149 34/150/150
usemtl m_text
f 34/151/151 36/152/152 37/153/153
f 36/154/154 39/155/155 37/156/156
o cube
v 0.6875 1.25 0.6875
v 0.6875 1.25 0.3125
v 0.6875 0.5625 0.6875
v 0.6875 0.5625 0.3125
v 0.3125 1.25 0.3125
v 0.3125 1.25 0.6875
v 0.3125 0.5625 0.3125
v 0.3125 0.5625 0.6875
vt 0.28125 0.71875
vt 0.28125 0.28125
vt 0.65625 0.71875
vt 0.28125 0.28125
vt 0.65625 0.28125
vt 0.65625 0.71875
vt 0.3125 0.71875
vt 0.3125 0.28125
vt 0.6875 0.71875
vt 0.3125 0.28125
vt 0.6875 0.28125
vt 0.6875 0.71875
vt 0.3125 0.71875
vt 0.3125 0.28125
vt 0.6875 0.71875
vt 0.3125 0.28125
vt 0.6875 0.28125
vt 0.6875 0.71875
vt 0.28125 0.6875
vt 0.28125 0.0625
vt 0.65625 0.6875
vt 0.28125 0.0625
vt 0.65625 0.0625
vt 0.65625 0.6875
vn 1 0 0
vn 1 0 0
vn 1 0 0
vn 1 0 0
vn 1 0 0
vn 1 0 0
vn -1 0 0
vn -1 0 0
vn -1 0 0
vn -1 0 0
vn -1 0 0
vn -1 0 0
vn 0 0 1
vn 0 0 1
vn 0 0 1
vn 0 0 1
vn 0 0 1
vn 0 0 1
vn 0 0 -1
vn 0 0 -1
vn 0 0 -1
vn 0 0 -1
vn 0 0 -1
vn 0 0 -1
usemtl m_stone_1
f 41/157/157 43/158/158 42/159/159
f 43/160/160 44/161/161 42/162/162
usemtl m_stone_1
f 45/163/163 47/164/164 46/165/165
f 47/166/166 48/167/167 46/168/168
usemtl m_stone_1
f 46/169/169 48/170/170 41/171/171
f 48/172/172 43/173/173 41/174/174
usemtl m_stone_1
f 42/175/175 44/176/176 45/177/177
f 44/178/178 47/179/179 45/180/180
